<svg id="Capa_1" enable-background="new 0 0 512 512" height="512" viewBox="0 0 512 512" width="512" xmlns="http://www.w3.org/2000/svg"><g><g><g><path d="m137.435 50.875h284.913v209.596h-284.913z" fill="#ffe6b4" transform="matrix(-1 0 0 -1 559.783 311.347)"/></g><g><path d="m251.479 157.601-114.044 102.87h284.913l-114.044-102.87" fill="#faf7f5"/></g><g><g><path d="m279.892 179.606-142.457-128.731h284.913z" fill="#ffda8f"/></g></g><g><g><g><path d="m309.398 461.125h36.606c6.963 0 13.563-3.109 17.996-8.479l127.682-126.185c14.815-13.795 13.486-37.651-2.769-49.715-12.54-9.305-29.932-8.335-41.358 2.31l-82.59 83.886c-.244-11.643-4.626-21.994-14.654-28.816-6.074-4.133-13.309-6.223-20.653-6.426l-132.573-3.115c-16.725-.463-33.117 4.731-46.523 14.742l-52.074 38.883h-88.488v66.157h88.488s12.398 16.759 49.095 16.759h71.403" fill="#ffd0c7"/></g></g></g></g><g><g><path d="m264.01 471.12c-4.18 0-8.005-2.691-9.415-6.626-1.427-3.982-.125-8.581 3.2-11.203 3.379-2.664 8.18-2.857 11.765-.481 3.395 2.25 5.105 6.529 4.205 10.501-1.024 4.513-5.122 7.809-9.755 7.809z"/></g><path d="m511.934 300.396c-.702-12.608-6.921-24.156-17.061-31.681-16.415-12.18-39.18-10.908-54.134 3.023-.105.098-.208.199-.31.301l-69.816 70.911c-3.201-6.869-8.131-12.64-14.677-17.094-7.453-5.07-16.444-7.89-26.044-8.155l-132.531-3.114c-18.905-.523-37.638 5.417-52.782 16.725l-49.412 36.895h-85.167c-5.523 0-10 4.477-10 10v66.156c0 5.523 4.477 10 10 10h84.229c6.721 6.139 22.768 16.759 53.354 16.759h71.403c5.523 0 10-4.477 10-10s-4.477-10-10-10h-71.403c-29.377 0-40.05-11.547-41.11-12.788-1.86-2.703-4.691-3.972-7.984-3.972h-78.489v-46.156h78.488c2.156 0 4.255-.697 5.983-1.987l52.074-38.883c11.553-8.626 25.867-13.16 40.304-12.757l108.193 2.542v11.214c0 5.523 4.478 10 10 10s10-4.477 10-10v-10.744l4.339.102c5.728.159 11.02 1.783 15.305 4.698 6.585 4.481 10.041 11.404 10.276 20.581v.013.925c-.835 5.862-3.882 11.102-8.62 14.804-4.893 3.822-10.961 5.526-17.093 4.797-.308-.037-.616-.059-.926-.066l-138.564-3.515c-5.52-.158-10.11 4.223-10.251 9.743-.14 5.521 4.223 10.11 9.743 10.25l138.13 3.504c1.564.168 3.125.251 4.678.251 9.604 0 18.892-3.187 26.595-9.203 8.689-6.787 14.335-16.377 16.019-27.142l79.844-81.096c7.897-7.228 19.824-7.854 28.439-1.463 5.354 3.974 8.639 10.073 9.01 16.732.371 6.661-2.216 13.088-7.097 17.634-.073.067-.145.136-.215.205l-127.682 126.188c-.239.237-.467.486-.682.746-2.543 3.079-6.292 4.845-10.285 4.845h-36.607c-5.522 0-10 4.477-10 10s4.478 10 10 10h36.607c9.799 0 19.008-4.254 25.353-11.69l127.253-125.761c9.168-8.6 14.023-20.719 13.323-33.277z"/><path d="m422.366 270.471c5.512.015 9.986-4.451 9.982-9.962v-.037s0-209.598 0-209.599c0-.006 0-.023-.001-.051-.112-5.391-4.431-9.755-9.82-9.94-.11-.004-.173-.006-.179-.006h-284.913c-.001 0-.003 0-.005 0-5.437-.004-9.886 4.351-9.991 9.787-.002.124-.004.197-.004.21v209.599.008c-.016 5.359 4.219 9.776 9.575 9.976.262.01.416.015.425.015h284.913zm-10.018-32.487-91.153-82.222 91.153-82.371zm-15.982-177.108-116.474 105.252-116.476-105.252zm-248.931 12.514 91.154 82.371-91.154 82.223zm16.016 177.081 90.055-81.231 19.682 17.785c1.903 1.72 4.304 2.581 6.704 2.581s4.801-.86 6.705-2.581l19.681-17.785 90.053 81.23h-232.88z"/></g></g></svg>